<?xml version="1.0" standalone="no"?>
<!DOCTYPE svg PUBLIC "-//W3C//DTD SVG 20010904//EN"
 "http://www.w3.org/TR/2001/REC-SVG-20010904/DTD/svg10.dtd">
<svg version="1.0" xmlns="http://www.w3.org/2000/svg"
 width="1555.000000pt" height="1563.000000pt" viewBox="0 0 1555.000000 1563.000000"
 preserveAspectRatio="xMidYMid meet">
<g transform="translate(0.000000,1563.000000) scale(0.100000,-0.100000)"
fill="#ffffff" stroke="none">
<path d="M7425 15623 c-22 -1 -105 -8 -185 -13 -2119 -154 -4126 -1214 -5476
-2890 -922 -1145 -1496 -2506 -1673 -3965 -63 -520 -71 -1162 -20 -1695 199
-2113 1270 -4069 2953 -5394 1213 -955 2644 -1514 4216 -1648 242 -20 1054
-17 1290 5 1237 118 2325 470 3350 1085 766 459 1452 1051 2025 1747 217 263
390 509 697 990 251 392 357 576 498 860 213 432 346 805 424 1192 l27 132 -4
558 -3 558 -42 152 c-23 83 -60 202 -83 265 -264 723 -851 1358 -1729 1870
-649 379 -1168 563 -1688 600 -385 28 -732 -40 -1072 -208 -252 -125 -456
-274 -703 -514 -301 -292 -410 -481 -410 -715 0 -189 70 -337 233 -493 280
-270 789 -509 2070 -974 947 -343 1344 -553 1675 -883 147 -147 233 -267 324
-450 100 -201 164 -415 206 -686 l16 -105 -81 -175 c-479 -1032 -1222 -1954
-2130 -2643 -1015 -771 -2220 -1254 -3475 -1395 -481 -54 -1040 -58 -1505 -11
-2190 224 -4141 1444 -5307 3320 -736 1185 -1101 2560 -1052 3967 70 2009 993
3887 2544 5178 1153 961 2541 1517 4055 1625 200 14 720 15 925 0 929 -64
1727 -274 2616 -688 440 -204 1015 -576 1433 -924 524 -438 928 -885 1348
-1493 125 -180 205 -230 368 -230 73 1 94 5 145 30 128 61 205 178 213 321 6
114 -12 160 -133 339 -1163 1722 -2976 2905 -5024 3280 -306 56 -606 92 -939
115 -137 9 -815 12 -917 3z"/>
<path d="M3052 9970 c-135 -36 -241 -111 -286 -202 -39 -78 -30 -150 26 -214
42 -47 77 -64 137 -64 63 0 91 11 139 55 77 69 166 84 258 41 67 -31 108 -84
140 -178 40 -121 90 -168 179 -168 77 0 149 40 181 102 21 40 17 118 -11 205
-64 203 -218 354 -425 418 -87 27 -250 29 -338 5z"/>
<path d="M2425 8385 c-149 -28 -261 -84 -353 -176 -70 -71 -95 -124 -94 -202
0 -81 24 -138 78 -185 96 -85 245 -81 335 9 61 61 93 74 184 73 63 0 92 -6
135 -26 108 -49 154 -108 190 -243 25 -90 54 -142 102 -178 115 -87 306 -29
365 110 34 82 -1 254 -84 417 -37 73 -64 108 -132 176 -98 97 -166 140 -283
181 -161 55 -307 70 -443 44z"/>
<path d="M4199 7260 c-195 -27 -395 -145 -459 -270 -28 -54 -30 -147 -6 -204
42 -101 111 -147 219 -147 80 0 123 17 184 74 27 24 63 49 82 55 86 30 243 0
314 -58 50 -42 82 -99 107 -195 28 -101 58 -154 110 -190 108 -75 287 -19 349
108 66 137 -49 453 -225 617 -175 163 -433 243 -675 210z"/>
<path d="M2530 6284 c-14 -2 -52 -9 -85 -15 -191 -34 -419 -188 -512 -347 -37
-62 -39 -165 -6 -228 47 -88 142 -141 237 -131 71 7 125 36 177 96 119 133
279 174 425 107 122 -56 198 -167 215 -313 20 -175 96 -254 245 -254 79 0 137
24 186 79 50 55 62 105 55 227 -13 240 -132 461 -327 609 -99 76 -176 113
-305 147 -68 18 -254 32 -305 23z"/>
<path d="M4835 5290 c-128 -21 -266 -75 -360 -144 -78 -56 -180 -162 -211
-219 -85 -156 32 -355 210 -357 74 0 116 21 204 103 109 103 168 131 277 132
69 0 89 -4 145 -31 123 -59 203 -172 215 -303 9 -99 22 -138 63 -183 51 -56
101 -78 185 -78 164 0 260 119 242 302 -10 91 -40 216 -69 281 -104 236 -314
414 -565 478 -89 23 -251 32 -336 19z"/>
<path d="M7105 4624 c-182 -40 -343 -137 -461 -274 -62 -72 -84 -122 -84 -190
0 -99 59 -189 150 -228 48 -21 147 -19 191 3 18 10 66 48 105 85 39 37 97 80
130 96 52 25 70 29 149 29 83 0 95 -3 153 -34 120 -65 187 -168 201 -310 18
-172 110 -259 266 -249 81 5 147 44 189 111 38 62 45 155 21 282 -35 188 -117
339 -253 466 -113 106 -216 163 -368 205 -85 23 -300 28 -389 8z"/>
<path d="M9976 4125 c-127 -35 -249 -125 -289 -214 -40 -90 2 -203 93 -248 74
-38 152 -25 223 37 60 53 85 63 147 63 119 0 200 -67 245 -203 54 -162 159
-211 290 -135 104 60 110 191 18 385 -27 56 -55 94 -112 150 -129 129 -264
181 -460 179 -58 0 -128 -7 -155 -14z"/>
<path d="M3655 4040 c-202 -32 -384 -131 -508 -278 -66 -77 -87 -124 -87 -197
0 -70 23 -126 70 -173 45 -46 84 -63 152 -69 88 -8 136 14 228 107 83 84 146
117 246 127 104 11 241 -53 309 -145 41 -55 75 -155 75 -221 0 -55 35 -134 76
-173 42 -40 101 -60 169 -60 97 0 174 44 218 126 19 36 22 55 20 151 -2 183
-69 364 -188 508 -108 130 -275 236 -440 277 -93 24 -254 33 -340 20z"/>
<path d="M8450 3165 c-166 -34 -316 -120 -438 -249 -85 -91 -106 -135 -106
-216 0 -74 18 -119 66 -169 50 -51 98 -71 171 -71 83 0 147 32 209 103 27 32
71 67 109 87 60 33 70 35 159 35 82 0 103 -4 152 -27 118 -55 192 -161 209
-301 13 -107 24 -141 62 -184 117 -133 346 -98 414 64 7 18 13 68 13 116 0
393 -287 738 -678 813 -90 17 -255 17 -342 -1z"/>
<path d="M6124 2988 c-195 -16 -370 -101 -522 -255 -87 -88 -115 -143 -115
-225 2 -136 106 -238 243 -238 81 0 120 20 200 100 80 81 138 115 224 131 133
24 289 -53 363 -179 29 -50 53 -137 53 -198 0 -53 42 -136 87 -169 125 -96
320 -52 376 85 24 58 29 111 17 205 -25 204 -102 359 -249 505 -83 83 -110
103 -201 148 -161 80 -294 106 -476 90z"/>
</g>
</svg>
